# xmcd
#
# Track frame offsets: 
#        150
#        17290
#        35307
#        50547
#        65135
#        83150
#        107592
#        126807
#        148812
#        167992
#        182565
#        201672
#        220925
#        240622
#        262280
#        284897
#        309417
#        327285
#
# Disc length: 4566 seconds
#
# Revision: 0
# Processed by: cddbd v1.4PL0 Copyright (c) Steve Scherf et al.
# Submitted via: ExactAudioCopy v0.90b4
#
DISCID=1911d412
DTITLE=Bert Heerink - Hollands glorie
DYEAR=2002
DGENRE=Pop
TTITLE0=Juli, July
TTITLE1=Wordt het geen tijd
TTITLE2=Als een vogel zo vrij
TTITLE3=Liefde was simpel toen
TTITLE4=Schaamteloos
TTITLE5=De wind in je haren
TTITLE6=Najaarszon
TTITLE7=Alleen
TTITLE8=Stof in de wind
TTITLE9=Geef me geen hoop
TTITLE10=Doe wat je wil
TTITLE11=Ik leef alleen nog maar voor jou
TTITLE12=Wie houdt me tegen
TTITLE13=Liefde is zeldzaam
TTITLE14=Snelweg
TTITLE15=Vleugellam
TTITLE16=De tijd van je leven
TTITLE17=Factor 10 en een zonneklep
EXTD=
EXTT0=
EXTT1=
EXTT2=
EXTT3=
EXTT4=
EXTT5=
EXTT6=
EXTT7=
EXTT8=
EXTT9=
EXTT10=
EXTT11=
EXTT12=
EXTT13=
EXTT14=
EXTT15=
EXTT16=
EXTT17=
PLAYORDER=
